# Aspose.3D Wavefront OBJ Exporter
# Copyright 2004-2024 Aspose Pty Ltd.
# File created: 09/10/2024 21:09:35

mtllib material.lib
g BeachPalm256

#
# object BeachPalm256
#

v -5.8325872 6.0875006 -0.3539838
v 0.0877928 8.664572 -0.2503036
v 6.0926576 6.3019705 2.55884E-06
v 8.664442 0.3836749 0.2503088
v 6.2966275 -5.6234584 0.3539892
v 0.3762496 -8.200535 0.2503091
v -5.6286173 -5.8379364 3.01333E-06
v -8.200404 0.0803572 -0.2503033
v -5.4506335 5.7187176 14.08801
v -0.3334463 7.9508624 14.27607
v 4.8639364 5.9086695 14.41783
v 7.0969615 0.7884258 14.43025
v 5.0575504 -4.4104996 14.30604
v -0.0596346 -6.6426473 14.11798
v -5.2570195 -4.600457 13.97622
v -7.4900455 0.5197851 13.9638
v -5.214021 5.0135236 25.53438
v -0.676249 6.9899526 25.57641
v 3.9286716 5.1796846 25.70697
v 5.9032426 0.6431502 25.84958
v 4.0907865 -3.9622123 25.9207
v -0.4469846 -5.9386435 25.87868
v -5.0519075 -4.1283784 25.74812
v -7.02648 0.408155 25.6055
v -4.8697443 4.7295327 35.9836
v -0.8680304 6.4718394 35.96077
v 3.1930287 4.874664 35.87895
v 4.9345217 0.8736081 35.78609
v 3.3363047 -3.1875644 35.73658
v -0.6654072 -4.9298735 35.75942
v -4.7264676 -3.3327005 35.84123
v -6.4679623 0.6683543 35.93409
v -3.9944794 3.8268406 44.10421
v -0.6800668 5.2696805 44.10086
v 2.6820276 3.9500566 43.95237
v 4.1223335 0.6409851 43.74574
v 2.7971416 -2.7191234 43.60199
v -0.5172698 -4.1619663 43.60534
v -3.8793645 -2.8423443 43.75383
v -5.3196735 0.4667256 43.96046
v -2.9677825 2.4439476 50.89061
v -0.3416482 3.5810606 50.96524
v 2.3209445 2.5350995 50.85689
v 3.4602857 -0.0812248 50.62903
v 2.4089656 -2.7353065 50.41514
v -0.2171669 -3.8724215 50.34051
v -2.8797605 -2.8264625 50.44886
v -4.0191035 -0.2101383 50.67672
v -2.2848494 0.970862 56.74725
v -0.2447575 1.8572816 56.76674
v 1.8245326 1.0432745 56.70735
v 2.7108586 -0.9943244 56.60386
v 1.8950247 -3.0619185 56.51689
v -0.145067 -3.9483385 56.49739
v -2.2143574 -3.1343343 56.55679
v -3.1006854 -1.0967354 56.66027
v -1.5010674 -0.2305602 62.85709
v -0.0983259 0.3773478 62.89028
v 1.3240296 -0.1838317 62.87232
v 1.9328016 -1.5853674 62.81373
v 1.3713806 -3.0062594 62.74883
v -0.0313615 -3.6141684 62.71564
v -1.4537174 -3.0529895 62.7336
v -2.0624905 -1.6514534 62.79219
v -0.8071454 -1.6090654 69.3859
v -0.1489507 -1.3237793 69.40148
v 0.5184772 -1.5870655 69.39305
v 0.8041687 -2.2446935 69.36556
v 0.5407695 -2.9114344 69.33511
v -0.1174248 -3.1967213 69.31953
v -0.7848534 -2.9334354 69.32796
v -1.0705444 -2.2758074 69.35545
v 19.603008 17.76764 67.3358
v -0.0281758 -1.8577894 62.20975
v -27.42888 4.3966026 67.0912
v 24.383059 0.3952485 106.1101
v 4.1152077 -16.916292 95.81956
v -22.622322 -13.072102 106.0805
v 32.43614 -27.679861 134.4874
v 11.095669 -41.25199 120.4172
v -14.524601 -41.302853 134.6151
v 42.65437 -62.5954 148.5638
v 19.952898 -71.51701 132.6188
v -4.2497244 -76.41197 148.7696
v 42.178467 -91.27503 148.6622
v 29.4684 -103.54778 130.7457
v 13.051119 -99.97878 149.0387
v -18.808891 -3.3885553 20.25352
v 0.8761425 7.0416436 16.31656
v 20.561178 -3.8226924 20.4174
v -18.808891 17.063328 46.49731
v 0.876142 23.429209 37.34502
v 20.561178 16.798368 46.87827
v -18.808891 48.782917 56.54144
v 0.8761435 48.845287 45.39313
v 20.561178 48.780308 57.00547
v -18.8089 80.612915 46.8529
v 0.8761416 74.349846 37.62994
v 20.561178 80.87361 47.23678
v -11.877392 96.973915 29.6824
v 0.8761435 90.97169 16.78616
v 12.597809 97.36994 29.92425
v -8.036948 18.5122 20.25352
v 3.6948576 -0.4259776 16.31656
v -5.8195605 -20.797781 20.41739
v 12.368539 19.8891 46.49731
v 20.045248 0.6772901 37.34502
v 14.754719 -19.409502 46.87826
v 44.01616 22.024569 56.54143
v 45.40366 2.3883936 45.39311
v 46.66411 -17.256361 57.00545
v 75.77394 24.167488 46.85287
v 70.85035 4.1054497 37.62992
v 78.68457 -15.095721 47.23676
v 92.56447 18.35319 29.68238
v 87.43447 5.2244987 16.78615
v 94.60736 -6.0398216 29.92422
v 20.286108 13.196069 35.93089
v 1.3197116 -6.0100026 36.57671
v -25.023232 0.9156801 38.04092
v 25.269958 1.7431107 73.34321
v 5.34502 -15.2602215 66.79355
v -19.999481 -10.628962 75.75273
v 34.740017 -27.61856 97.91759
v 12.993709 -38.9748 86.64157
v -10.453611 -40.22568 100.5238
v 45.61816 -65.34526 101.6664
v 21.779669 -69.44555 89.66937
v 0.5116053 -78.254395 104.3027
v 44.269928 -92.64972 91.14783
v 28.8471 -96.76829 74.89282
v 16.301208 -100.91178 92.90497
v 32.884068 4.2814617 16.39216
v -0.4180398 1.2249547 16.34808
v -19.75377 27.27846 25.77141
v 30.46835 -17.96174 56.72209
v -2.5006495 -17.951052 51.11676
v -22.183361 4.907582 66.33282
v 21.024609 -52.290783 86.03817
v -10.642161 -47.54632 76.39033
v -31.681301 -29.61848 95.81716
v 5.9591894 -93.5934 99.97467
v -23.630142 -83.153564 88.40507
v -46.833183 -71.15817 109.8337
v -16.21289 -119.742485 100.9285
v -39.53043 -119.470184 85.37177
v -49.05687 -105.95588 107.3082
v -14.005732 17.712389 15.77598
v 1.3168316 1.0777208 16.32082
v -5.5236654 -20.695282 17.54377
v -6.5930386 20.848438 46.50433
v 7.5811815 3.7279625 42.28886
v 1.9368236 -17.538992 48.47025
v 13.027999 26.53876 70.82816
v 24.162619 8.536751 62.84457
v 21.684378 -11.811992 72.95093
v 41.03463 33.674667 84.0085
v 47.830597 14.567208 73.98306
v 49.87161 -4.6300626 86.21625
v 64.54611 32.098 85.40715
v 73.97387 20.64441 73.53425
v 70.14459 8.317709 86.95835
v -19.52259 7.0957417 20.25352
v 2.3471146 2.8524246 16.31656
v 10.845348 -17.96379 20.41739
v -6.6802382 23.012829 46.49732
v 12.637359 15.606369 37.34503
v 23.793928 -1.9150424 46.87826
v 13.237438 47.69923 56.54143
v 28.596878 35.38694 45.39313
v 43.876358 22.975548 57.00546
v 33.224438 72.47155 46.85288
v 44.61195 55.23637 37.62994
v 64.02867 47.952778 47.23676
v 48.89258 80.85234 29.68238
v 55.049297 68.17266 16.78616
v 68.189575 65.79183 29.92424
v 10.615898 20.286758 20.25353
v 1.3320886 0.0358201 16.31656
v -20.901562 -3.3107164 20.4174
v 23.053299 4.0512815 46.49731
v 11.297858 -12.973251 37.34502
v -8.361281 -19.68049 46.87825
v 42.34293 -21.128922 56.54143
v 26.75413 -33.14949 45.3931
v 11.087898 -45.06898 57.00546
v 61.699688 -46.396763 46.85287
v 42.26421 -53.39596 37.62991
v 30.604778 -70.54583 47.23675
v 66.146805 -63.600002 29.68237
v 52.372448 -66.59101 16.78615
v 46.95831 -78.79847 29.92422
v 18.09348 -3.4851153 36.16482
v -3.7569184 0.8609353 32.23271
v -12.154661 21.71889 36.32848
v 7.3823495 -16.632042 62.69108
v -12.898981 -10.360102 54.87315
v -22.9311 8.491795 63.01649
v -9.193624 -36.97753 80.08393
v -27.046741 -27.725191 69.71813
v -39.608143 -11.977741 80.5154
v -28.797651 -61.03968 85.36678
v -43.77899 -48.262493 74.2271
v -59.331703 -36.1866 85.83044
v -48.044243 -73.68914 81.20763
v -60.23217 -68.45725 67.62839
v -67.11535 -58.347942 81.64594
v 16.36579 3.8836997 20.25352
v -5.0130663 -2.3800313 16.31656
v -22.114742 12.216799 20.4174
v 12.257858 -16.151392 46.49731
v -8.304645 -18.433632 37.34502
v -26.256641 -7.9840155 46.87826
v 5.886718 -47.22454 56.54142
v -13.409672 -43.33174 45.3931
v -32.680492 -39.31419 57.00545
v -0.5065966 -78.40585 46.85286
v -18.532482 -68.31651 37.62991
v -39.126682 -70.75342 47.23676
v -10.583081 -93.04117 29.68236
v -21.87111 -84.59961 16.78614
v -34.63903 -88.51307 29.92422
v 15.530349 -16.16192 21.18247
v -5.9991655 0.8676187 16.33135
v -3.5097644 28.460459 21.38438
v -7.5381184 -26.30722 53.52006
v -24.483332 -7.261545 42.24261
v -26.769041 18.231228 53.98947
v -43.31584 -42.04193 65.89642
v -53.151093 -19.869371 52.15947
v -62.842712 2.3663695 66.4682
v -79.21811 -57.831413 53.95818
v -81.91864 -32.521072 42.59367
v -99.04194 -13.553721 54.43121
v -101.11068 -58.129093 32.8007
v -100.66708 -40.76644 16.90997
v -113.69848 -30.71902 33.09871
v -6.0556474 -18.00105 20.25352
v -3.9150524 4.173434 16.31657
v 15.996899 14.616078 20.4174
v -23.123772 -6.7334495 46.49731
v -17.591301 13.201869 37.34503
v -1.2124094 25.97688 46.87827
v -49.595352 10.741889 56.54143
v -38.80229 27.2044 45.39313
v -27.902952 43.59676 57.00546
v -76.15908 28.278059 46.85288
v -60.087112 41.25568 37.62993
v -54.6864 61.277977 47.23678
v -85.99437 43.076538 29.68238
v -73.958885 50.41319 16.78614
v -72.84069 63.72051 29.92425
v -23.570211 -8.380556 47.68839
v 0.8761425 4.5752625 42.09021
v 25.322498 -8.919816 47.92139
v -23.570211 11.668669 85.45242
v 0.876142 21.95407 74.82432
v 25.322498 11.240559 85.89481
v -23.57022 42.34127 112.2391
v 0.8761416 48.54128 98.04321
v 25.322498 42.0832 112.83
v -23.570211 79.41761 124.3634
v 0.8761416 80.67929 108.5526
v 25.322498 79.36509 125.0215
v -14.962161 106.74942 123.0869
v 0.8761358 113.94692 104.9068
v 15.432988 106.84842 123.7379
v -17.440622 22.326218 47.6884
v 0.9050493 1.6159786 42.09021
v -6.4570894 -25.319881 47.9214
v 2.0453665 27.045109 85.45243
v 17.79563 5.7063384 74.82433
v 13.136929 -20.574831 85.89481
v 31.85628 34.26436 112.2391
v 43.63593 11.964039 98.04321
v 43.11311 -13.315552 112.83
v 67.89105 42.990837 124.3634
v 74.8711 19.528208 108.5526
v 79.34764 -4.5406976 125.0215
v 96.48108 41.057568 123.0869
v 107.20412 27.358238 104.9068
v 103.73122 11.539609 123.7379
v -19.00995 18.883549 59.32545
v -0.0475797 -1.8266864 62.2119
v -9.207468 -28.76254 64.28565
v -17.772491 23.602438 101.8024
v 1.0250542 2.2636817 99.03125
v -7.9631524 -24.01748 106.9981
v -2.4781854 30.821709 138.847
v 14.282269 8.521388 131.1418
v 7.4159484 -16.758202 144.2481
v 24.768938 39.548187 165.363
v 37.900257 16.085558 154.1259
v 34.81414 -7.9833393 170.9111
v 51.099117 37.614918 176.5764
v 68.62989 23.915588 164.8219
v 57.354668 8.09697 180.299
v -2.0725684 -29.503561 67.34431
v -0.0549583 -1.8195434 62.20974
v 24.761848 11.370588 67.10007
v -21.479462 -16.651731 106.0264
v -15.627631 8.493149 93.2494
v 5.1953554 24.32812 106.1003
v -53.758842 4.204962 122.6732
v -41.52956 25.22918 106.6073
v -27.349482 45.356327 122.8839
v -87.71557 25.83298 111.5111
v -68.77744 42.584137 97.65053
v -61.58544 67.1622 111.6301
v -101.586784 44.68956 88.48462
v -87.92112 54.53898 69.48561
v -85.58528 70.53855 88.58461
# 312 vertices

vn -0.7176822 0.6948088 0.04661418
vn -0.02011315 0.9976232 0.06590483
vn -0.01951411 0.9986221 0.0487156
vn -0.719139 0.6938691 0.03721175
vn 0.6875753 0.7204152 0.09078602
vn 0.6901726 0.719386 0.07839348
vn 0.993986 0.02303441 0.1070573
vn 0.9938458 0.01983451 0.108982
vn 0.7169499 -0.689087 0.1055551
vn 0.7135913 -0.689699 0.1228926
vn 0.01583586 -0.9961017 0.08677917
vn 0.01433905 -0.9936197 0.1118674
vn -0.6960423 -0.7153736 0.0613657
vn -0.694521 -0.7147809 0.08202948
vn -0.9989108 -0.01378304 0.0445794
vn -0.9985714 -0.01605832 0.05096212
vn -0.7217274 0.6903427 0.05036305
vn -0.02097167 0.9975266 0.06708847
vn 0.6914481 0.7171121 0.08746364
vn 0.9948877 0.01503393 0.09986209
vn 0.7133614 -0.694012 0.09727746
vn 0.01522099 -0.9966049 0.08091331
vn -0.6926032 -0.7188099 0.06010842
vn -0.9986507 -0.02132602 0.04734894
vn -0.7158834 0.6914196 0.09721028
vn -0.0217647 0.99501 0.09737208
vn 0.6865523 0.7204607 0.09788927
vn 0.9948303 0.02247733 0.0990336
vn 0.7163038 -0.6906191 0.0997702
vn 0.01371704 -0.9949839 0.09909044
vn -0.6953848 -0.7119552 0.09777451
vn -0.9951825 -0.01319555 0.09714834
vn -0.7053063 0.6810036 0.1969193
vn -0.01679285 0.9812003 0.1922607
vn 0.6856574 0.7117174 0.1527485
vn 0.9947433 0.02091568 0.1002405
vn 0.7196953 -0.6912022 0.06540827
vn 0.01676439 -0.9974048 0.07001803
vn -0.6916485 -0.7135831 0.1114516
vn -0.9863163 -0.0167948 0.1640058
vn -0.7002441 0.6703923 0.2454227
vn -0.0103081 0.9653179 0.2608739
vn 0.6878163 0.6958961 0.2064881
vn 0.9936017 0.01259561 0.1122358
vn 0.7210148 -0.6921636 0.03236209
vn 0.02186382 -0.9996427 0.01538177
vn -0.6889229 -0.7212223 0.07227442
vn -0.9854515 -0.02529838 0.168064
vn -0.7077146 0.6657356 0.2365081
vn -0.01513346 0.9651098 0.2614078
vn 0.6885743 0.6926932 0.214573
vn 0.9922912 0.002758367 0.1238978
vn 0.7132062 -0.6996002 0.04354665
vn 0.01691016 -0.99966 0.01985138
vn -0.6873496 -0.7233602 0.06557873
vn -0.9873633 -0.03288371 0.155024
vn -0.7045143 0.6746494 0.2202448
vn -0.01322643 0.9698597 0.2433046
vn 0.6855164 0.6961308 0.2132348
vn 0.9890463 0.009620693 0.1472923
vn 0.7158009 -0.693352 0.08301771
vn 0.02020981 -0.998095 0.05829123
vn -0.6881549 -0.7201189 0.08872209
vn -0.9874114 -0.02404451 0.1563352
vn -0.7140474 0.6657923 0.2164641
vn -0.01908712 0.9673859 0.2525867
vn 0.6862165 0.6890539 0.2330484
vn 0.98555 -0.004349427 0.1693291
vn 0.7050511 -0.7022094 0.09901942
vn 0.01455975 -0.9978907 0.0632627
vn -0.6848258 -0.7240123 0.08258209
vn -0.9886191 -0.03654663 0.1459337
vn -0.7048488 0.6108721 0.3605876
vn -0.2527603 0.8709489 0.4213791
vn -0.2289877 0.7878085 0.5717714
vn -0.6955901 0.5191939 0.4965804
vn 0.2685896 0.8909791 0.3660819
vn 0.308451 0.808768 0.5007518
vn -0.1531557 0.5245761 0.8374743
vn -0.6461182 0.2797668 0.7101141
vn 0.3932046 0.5822148 0.7116292
vn -0.02292754 0.2082548 0.9778059
vn -0.628777 0.018184 0.777373
vn 0.4503896 0.4025531 0.7969318
vn 0.05409862 0.05801938 0.9968486
vn -0.8205174 0.01557574 0.5714092
vn 0.633915 0.2653761 0.7264484
vn 0.4757406 -0.6937894 0.5406728
vn -0.009362691 -0.7887338 0.6146635
vn -0.009803573 -0.5709811 0.8209046
vn 0.4927996 -0.496859 0.7143388
vn -0.4908448 -0.6872123 0.5355472
vn -0.5080955 -0.49181 0.7070799
vn -0.0098037 -0.005595007 0.9999362
vn 0.4927994 -0.004868443 0.8701293
vn -0.5080954 -0.004819182 0.8612874
vn -0.04884226 0.5181351 0.853903
vn 0.5414978 0.404788 0.7368357
vn -0.5033779 0.3669015 0.7823005
vn -0.08049262 0.7153898 0.6940737
vn 0.7442625 0.3071172 0.5930873
vn -0.6561408 0.5178466 0.5489209
vn -0.6601867 -0.5213696 0.5406728
vn -0.7875747 -0.04375918 0.6146635
vn -0.5703454 -0.02865916 0.8209049
vn -0.4625546 -0.5251316 0.7143389
vn -0.7186986 0.4434653 0.5355474
vn -0.524901 0.473832 0.7070801
vn -0.006242039 0.009404469 0.9999362
vn 0.02831964 -0.4920093 0.8701292
vn -0.03901482 0.506618 0.8612875
vn 0.5136716 0.08361427 0.8539028
vn 0.4403255 -0.5130173 0.7368357
vn 0.3321799 0.5269367 0.7823005
vn 0.7083479 0.1284726 0.6940736
vn 0.3565269 -0.7218976 0.5930873
vn 0.472498 0.6895153 0.5489209
vn -0.6744624 0.676026 0.2967983
vn -0.2367164 0.9197484 0.3130947
vn -0.1901138 0.7990301 0.570445
vn -0.6472116 0.5586067 0.5187252
vn 0.25915 0.9326552 0.2509894
vn 0.3164828 0.8244975 0.4690869
vn -0.05323412 0.3746387 0.9256414
vn -0.5281009 0.189308 0.8278115
vn 0.4343827 0.4589515 0.7750323
vn 0.1276259 -0.1122006 0.9854555
vn -0.4608913 -0.2193112 0.8599313
vn 0.5297944 0.1164361 0.8400956
vn 0.218941 -0.328816 0.9186648
vn -0.6743104 -0.2362298 0.6996435
vn 0.7293969 -0.05689267 0.6817209
vn -0.08092419 0.8748193 0.4776426
vn 0.4211386 0.7833072 0.4572439
vn 0.4034376 0.6753986 0.6173126
vn -0.1045212 0.7805807 0.616254
vn 0.8127595 0.4881973 0.3179394
vn 0.8021414 0.3892841 0.452799
vn 0.3244232 0.3881728 0.8625958
vn -0.173278 0.5306421 0.8296949
vn 0.7340834 0.1418853 0.6640708
vn 0.2452253 0.07038763 0.9669075
vn -0.3053872 0.3061392 0.9016747
vn 0.6656724 -0.04322358 0.7449913
vn 0.216852 -0.08087286 0.9728488
vn -0.4932661 0.4454983 0.747141
vn 0.7144262 -0.2571989 0.6507257
vn -0.7179463 -0.6534595 0.2398829
vn -0.9476096 -0.2000705 0.2490136
vn -0.8728474 -0.1728976 0.4563374
vn -0.6458286 -0.6379591 0.4194205
vn -0.9327337 0.3039359 0.1939872
vn -0.8652539 0.3374158 0.3707915
vn -0.6002128 -0.09383045 0.7943176
vn -0.4085867 -0.5691563 0.7135249
vn -0.6304227 0.4055195 0.6619073
vn -0.26243 0.02884554 0.9645199
vn -0.1187806 -0.5434447 0.8309988
vn -0.4117358 0.4581986 0.7877358
vn -0.09838205 0.100755 0.9900351
vn -0.08928063 -0.7513101 0.6538825
vn -0.2418277 0.6438099 0.7259671
vn -0.06539675 -0.8386872 0.5406727
vn -0.5025563 -0.6079688 0.6146634
vn -0.3661658 -0.4382215 0.8209047
vn 0.07153835 -0.6961339 0.7143388
vn -0.8135307 -0.2266206 0.5355472
vn -0.7042574 -0.06371287 0.7070799
vn -0.01114289 0.00180181 0.9999362
vn 0.3804738 -0.3132321 0.8701295
vn -0.398461 0.3152976 0.8612875
vn 0.2873402 0.4339184 0.8539031
vn 0.6756099 -0.02498792 0.7368357
vn -0.1613748 0.6016341 0.7823008
vn 0.3865701 0.6073098 0.6940739
vn 0.7720852 -0.2283237 0.5930874
vn -0.1854828 0.8150346 0.5489213
vn -0.7995749 0.2614439 0.5406729
vn -0.4722201 0.6318202 0.6146637
vn -0.3394481 0.4592277 0.8209049
vn -0.6933575 0.09473895 0.7143388
vn -0.02826308 0.8440321 0.5355474
vn 0.1042608 0.6994051 0.7070801
vn 0.004380299 0.01040294 0.9999363
vn -0.3941635 -0.2958216 0.8701292
vn 0.4004149 0.3128133 0.8612872
vn 0.3538662 -0.3816128 0.853903
vn -0.1836975 -0.6506369 0.7368357
vn 0.622724 0.01485865 0.7823005
vn 0.4989477 -0.5189534 0.6940739
vn -0.4040562 -0.6964092 0.5930874
vn 0.835787 -0.01206763 0.5489212
vn 0.08974774 0.8774824 0.4711368
vn 0.5393438 0.6473128 0.5386043
vn 0.4576251 0.546686 0.7012231
vn 0.009770362 0.7921935 0.6101918
vn 0.8484552 0.2499965 0.4665036
vn 0.7817516 0.1551102 0.603991
vn 0.2398289 0.2793612 0.9297523
vn -0.179752 0.5595724 0.8090537
vn 0.5941554 -0.07514734 0.8008323
vn 0.03755772 -0.02348692 0.9990184
vn -0.3960364 0.3661738 0.8420641
vn 0.4470259 -0.2496376 0.8589813
vn -0.04145268 -0.1704123 0.9845006
vn -0.5051275 0.5498443 0.6652198
vn 0.4467158 -0.4767325 0.7570807
vn -0.3266917 0.7752066 0.540673
vn 0.1675956 0.7707791 0.6146636
vn 0.12429 0.5573751 0.8209049
vn -0.3829581 0.5857157 0.714339
vn 0.6188738 0.5746167 0.5355474
vn 0.5965246 0.3797318 0.7070801
vn 0.01072753 0.003511272 0.9999363
vn -0.4817787 0.1037518 0.8701292
vn 0.4987084 -0.09733451 0.8612873
vn -0.05622458 -0.5173864 0.8539029
vn -0.6117672 -0.2877747 0.7368357
vn 0.4194243 -0.4605319 0.7823003
vn -0.06484009 -0.7169779 0.6940739
vn -0.7907813 -0.1513676 0.5930874
vn 0.5387552 -0.6390843 0.5489209
vn 0.4435621 0.7147904 0.540673
vn 0.7257649 0.3089566 0.6146636
vn 0.5266143 0.2208901 0.8209049
vn 0.2564272 0.6511259 0.714339
vn 0.8266677 -0.1726551 0.5355473
vn 0.6547438 -0.2671112 0.7070801
vn 0.009067961 -0.006721824 0.9999363
vn -0.1939338 0.4530615 0.8701293
vn 0.2089592 -0.4631633 0.8612873
vn -0.4546309 -0.2532993 0.8539029
vn -0.5885325 0.3327204 0.7368356
vn -0.1332078 -0.6084913 0.7823005
vn -0.6224533 -0.3616818 0.6940736
vn -0.5807548 0.5576481 0.5930873
vn -0.2098819 -0.8090953 0.548921
vn 0.8411027 0.01479825 0.5406731
vn 0.6530797 -0.4423524 0.6146635
vn 0.471111 -0.3227534 0.8209048
vn 0.6861526 0.13753 0.714339
vn 0.3030913 -0.7882416 0.5355473
vn 0.1305141 -0.6949849 0.7070801
vn -0.000731969 -0.01126395 0.9999362
vn 0.275562 0.4085835 0.8701294
vn -0.275904 -0.4266858 0.8612875
vn -0.4593189 0.2446958 0.8539028
vn -0.03948751 0.6749179 0.7368355
vn -0.5835248 -0.2179563 0.7823004
vn -0.6413744 0.3269565 0.6940736
vn 0.1537334 0.7903251 0.5930871
vn -0.793658 -0.2622843 0.5489208
vn 0.4987788 -0.7655307 0.4064264
vn -0.009128297 -0.883204 0.4689001
vn -0.009664809 -0.7888675 0.6144873
vn 0.5147159 -0.6678974 0.537569
vn -0.5141332 -0.7575648 0.4021971
vn -0.5302143 -0.6603936 0.5317454
vn -0.009974378 -0.5012078 0.8652694
vn 0.5333894 -0.4132743 0.7380381
vn -0.5490007 -0.4082395 0.7293413
vn -0.04619166 -0.1539586 0.986997
vn 0.5905072 -0.1543141 0.7921416
vn -0.5535344 -0.2154702 0.8044701
vn -0.07750428 0.01273739 0.9969106
vn 0.7769603 -0.2171005 0.5909317
vn -0.6898389 -0.03585132 0.7230747
vn -0.6266296 -0.6649459 0.4064263
vn -0.8605407 -0.1990037 0.4689
vn -0.7689806 -0.1762787 0.6144873
vn -0.5279881 -0.6574556 0.5375691
vn -0.8572917 0.3213853 0.4021971
vn -0.766635 0.3598852 0.5317456
vn -0.4894749 -0.1082729 0.8652695
vn -0.276123 -0.6156752 0.7380381
vn -0.5259865 0.4374916 0.7293416
vn -0.1605051 0.008657516 0.9869971
vn -0.01099412 -0.6102383 0.7921416
vn -0.3396994 0.4872697 0.8044704
vn -0.005861985 0.07832478 0.9969106
vn -0.02813226 -0.8062311 0.5909315
vn -0.1972078 0.662021 0.723075
vn -0.7407671 -0.664946 0.0954511
vn -0.9786906 -0.1990038 0.05061947
vn -0.9590986 -0.1762788 0.2214851
vn -0.7085435 -0.6574557 0.2563554
vn -0.9469136 0.3213854 -0.008117783
vn -0.9212 0.3598853 0.1478956
vn -0.8155406 -0.1082727 0.568481
vn -0.5681482 -0.6156752 0.5460328
vn -0.7896756 0.4374918 0.4301316
vn -0.5715706 0.008657748 0.8205073
vn -0.3524943 -0.6102383 0.7094766
vn -0.654202 0.4872701 0.5784354
vn -0.4364247 0.0783252 0.8963251
vn -0.2809285 -0.8062307 0.5206451
vn -0.4905237 0.6620212 0.5666696
vn 0.8959437 0.01702301 0.4438413
vn 0.7190334 -0.4660212 0.5155727
vn 0.561704 -0.3639248 0.742999
vn 0.7530918 0.1502161 0.6405371
vn 0.3489741 -0.8228563 0.4484691
vn 0.170886 -0.7465497 0.6430098
vn 0.0577548 -0.0388528 0.9975744
vn 0.3464486 0.4339878 0.8316417
vn -0.2501571 -0.4961295 0.8314307
vn -0.4586256 0.2393454 0.8557898
vn -0.004292714 0.6954527 0.718559
vn -0.576766 -0.2697995 0.7710701
vn -0.6368671 0.3301384 0.696713
vn 0.1846062 0.8119773 0.553727
vn -0.7891459 -0.3008125 0.5355003
# 312 vertex normals

vt 0.5308082 0.05705279 0.5297459
vt 0.5007327 0.05836952 0.5428374
vt 0.470228 0.06154841 0.5308353
vt 0.5007704 0.06472731 0.5428367
vt 0.4702542 0.06604403 0.5308082
vt 0.5007327 0.06472731 0.4571626
vt 0.470228 0.06154841 0.4691646
vt 0.5007704 0.05836952 0.4571633
vt 0.5288678 0.2404661 0.5278724
vt 0.5028725 0.2428545 0.5392118
vt 0.4764698 0.2446548 0.5288374
vt 0.5028265 0.2448125 0.5348739
vt 0.476416 0.2432351 0.5245137
vt 0.4985184 0.2408467 0.4650767
vt 0.4721157 0.2390463 0.475451
vt 0.4985381 0.2388887 0.4607719
vt 0.5276659 0.385835 0.52429
vt 0.504614 0.3863688 0.5343303
vt 0.481221 0.3880269 0.5251341
vt 0.5020885 0.3898381 0.5288098
vt 0.4786933 0.3907413 0.5196025
vt 0.4965506 0.3902076 0.468653
vt 0.4731576 0.3885494 0.4778492
vt 0.4991052 0.3867383 0.4631268
vt 0.5259169 0.5185401 0.5228474
vt 0.5055882 0.5182501 0.5316983
vt 0.4849581 0.5172111 0.5235846
vt 0.5032592 0.5160317 0.5238887
vt 0.4826285 0.5154029 0.5157698
vt 0.4954411 0.5156929 0.4737776
vt 0.4748109 0.516732 0.4818912
vt 0.4977834 0.5179113 0.4659641
vt 0.5214706 0.6216718 0.5182617
vt 0.5046334 0.6216292 0.5255913
vt 0.487554 0.6197435 0.5188876
vt 0.5020775 0.6171193 0.5197628
vt 0.4850082 0.6152937 0.5130308
vt 0.4961936 0.6153362 0.4776786
vt 0.4791142 0.617222 0.4843822
vt 0.4988077 0.6198462 0.4717974
vt 0.516255 0.7078592 0.5112366
vt 0.5029142 0.7088069 0.5170131
vt 0.4893883 0.7074308 0.5116997
vt 0.4984087 0.704537 0.5163996
vt 0.484926 0.7018207 0.5110589
vt 0.4977181 0.7008729 0.4791495
vt 0.4841922 0.7022489 0.4844629
vt 0.5022461 0.7051426 0.4784043
vt 0.5127857 0.7822384 0.5037533
vt 0.502422 0.782486 0.5082563
vt 0.49191 0.7817317 0.5041212
vt 0.4937702 0.7804173 0.5125925
vt 0.4832668 0.7793128 0.5084481
vt 0.4980844 0.7790653 0.4787638
vt 0.4875724 0.7798196 0.4828989
vt 0.50675 0.7811338 0.4830699
vt 0.5088041 0.8598335 0.4976501
vt 0.5016782 0.860255 0.5007383
vt 0.4944526 0.8600268 0.4978875
vt 0.4907677 0.8592827 0.50864
vt 0.4835495 0.8584584 0.505788
vt 0.498662 0.858037 0.4804614
vt 0.4914365 0.858265 0.4833122
vt 0.509568 0.8590091 0.4883439
vt 0.5052789 0.9427494 0.4906473
vt 0.5019353 0.9429471 0.4920965
vt 0.4985448 0.9428401 0.490759
vt 0.4874183 0.9424911 0.5029065
vt 0.4840313 0.9421042 0.5015684
vt 0.4982248 0.9419063 0.482582
vt 0.4948343 0.9420134 0.4839195
vt 0.5127398 0.9423625 0.493383
vt 0.5288374 0.2446548 0.5235301
vt 0.5308353 0.06154841 0.529772
vt 0.5245137 0.2432351 0.476416
vt 0.5308082 0.06604403 0.4702542
vt 0.5245489 0.2390463 0.4721157
vt 0.5308354 0.06154841 0.470228
vt 0.4721276 0.2404661 0.4711321
vt 0.4702542 0.05705279 0.4691918
vt 0.5251341 0.3880269 0.518779
vt 0.5288374 0.2446548 0.5235301
vt 0.5196025 0.3907413 0.4786933
vt 0.5245137 0.2432351 0.476416
vt 0.5221508 0.3885494 0.4731576
vt 0.5245489 0.2390463 0.4721157
vt 0.4757099 0.385835 0.4723341
vt 0.4721276 0.2404661 0.4711321
vt 0.5235846 0.5172111 0.5150419
vt 0.5251341 0.3880269 0.518779
vt 0.5157698 0.5154029 0.4826285
vt 0.5196025 0.3907413 0.4786933
vt 0.5181088 0.516732 0.4748109
vt 0.5221508 0.3885494 0.4731576
vt 0.4771526 0.5185401 0.4740831
vt 0.4757099 0.385835 0.4723341
vt 0.5188876 0.6197435 0.512446
vt 0.5235846 0.5172111 0.5150419
vt 0.5130308 0.6152937 0.4850082
vt 0.5157698 0.5154029 0.4826285
vt 0.5156177 0.617222 0.4791142
vt 0.5181088 0.516732 0.4748109
vt 0.4817383 0.6216718 0.4785294
vt 0.4771526 0.5185401 0.4740831
vt 0.5116997 0.7074308 0.5106118
vt 0.5188876 0.6197435 0.512446
vt 0.5110589 0.7018207 0.484926
vt 0.5130308 0.6152937 0.4850082
vt 0.5155371 0.7022489 0.4841922
vt 0.5156177 0.617222 0.4791142
vt 0.4887634 0.7078592 0.483745
vt 0.4817383 0.6216718 0.4785294
vt 0.5041212 0.7817317 0.50809
vt 0.5116997 0.7074308 0.5106118
vt 0.5084481 0.7793128 0.4832668
vt 0.5110589 0.7018207 0.484926
vt 0.517101 0.7798196 0.4875724
vt 0.5155371 0.7022489 0.4841922
vt 0.4962467 0.7822384 0.4872143
vt 0.4887634 0.7078592 0.483745
vt 0.4978875 0.8600268 0.5055474
vt 0.5041212 0.7817317 0.50809
vt 0.505788 0.8584584 0.4835495
vt 0.5084481 0.7793128 0.4832668
vt 0.5166878 0.858265 0.4914365
vt 0.517101 0.7798196 0.4875724
vt 0.5023499 0.8598335 0.4911959
vt 0.4962467 0.7822384 0.4872143
vt 0.490759 0.9428401 0.5014552
vt 0.4978875 0.8600268 0.5055474
vt 0.5015684 0.9421042 0.4840313
vt 0.505788 0.8584584 0.4835495
vt 0.5160805 0.9420134 0.4948343
vt 0.5166878 0.858265 0.4914365
vt 0.5093527 0.9427494 0.4947211
vt 0.5023499 0.8598335 0.4911959
vt 0.000499517 0.000499606 11.64849
vt 0.4999997 0.000499576 0.5
vt 0.9994998 0.000499547 12.11252
vt 0.000499696 0.2502498 11.64849
vt 0.4999999 0.2502498 0.5
vt 0.9995 0.2502497 12.11252
vt 0.000499845 0.5000001 11.64849
vt 0.5 0.5 0.5
vt 0.9995002 0.4999999 12.11252
vt 0.000499994 0.7497503 11.64849
vt 0.5000002 0.7497502 0.5
vt 0.9995003 0.7497501 12.11252
vt 0.1763842 0.9264358 11.64849
vt 0.5000003 0.9995004 0.5
vt 0.797433 0.9264358 12.11252
vt 0.000499517 0.000499606 11.64849
vt 0.4999997 0.000499576 0.5
vt 0.9994998 0.000499547 12.11252
vt 0.000499696 0.2502498 11.64849
vt 0.4999999 0.2502498 0.5
vt 0.9995 0.2502497 12.11252
vt 0.000499845 0.5000001 11.64849
vt 0.5 0.5 0.5
vt 0.9995002 0.4999999 12.11252
vt 0.000499994 0.7497503 11.64849
vt 0.5000002 0.7497502 0.5
vt 0.9995003 0.7497501 12.11252
vt 0.1763842 0.9264358 11.64849
vt 0.5000003 0.9995004 0.5
vt 0.797433 0.9264358 12.11252
vt 0.000499517 0.000499606 11.64849
vt 0.4999997 0.000499576 0.5
vt 0.9994998 0.000499547 12.11252
vt 0.000499696 0.2502498 11.64849
vt 0.4999999 0.2502498 0.5
vt 0.9995 0.2502497 12.11252
vt 0.000499845 0.5000001 11.64849
vt 0.5 0.5 0.5
vt 0.9995002 0.4999999 12.11252
vt 0.000499994 0.7497503 11.64849
vt 0.5000002 0.7497502 0.5
vt 0.9995003 0.7497501 12.11252
vt 0.1763842 0.9264358 11.64849
vt 0.5000003 0.9995004 0.5
vt 0.797433 0.9264358 12.11252
vt 0.000499517 0.000499606 11.64849
vt 0.4999997 0.000499576 0.5
vt 0.9994998 0.000499547 12.11252
vt 0.000499696 0.2502498 11.64849
vt 0.4999999 0.2502498 0.5
vt 0.9995 0.2502497 12.11252
vt 0.000499845 0.5000001 11.64849
vt 0.5 0.5 0.5
vt 0.9995002 0.4999999 12.11252
vt 0.000499994 0.7497503 11.64849
vt 0.5000002 0.7497502 0.5
vt 0.9995003 0.7497501 12.11252
vt 0.1763842 0.9264358 11.64849
vt 0.5000003 0.9995004 0.5
vt 0.797433 0.9264358 12.11252
vt 0.000499517 0.000499606 11.64849
vt 0.4999997 0.000499576 0.5
vt 0.9994998 0.000499547 12.11252
vt 0.000499696 0.2502498 11.64849
vt 0.4999999 0.2502498 0.5
vt 0.9995 0.2502497 12.11252
vt 0.000499845 0.5000001 11.64849
vt 0.5 0.5 0.5
vt 0.9995002 0.4999999 12.11252
vt 0.000499994 0.7497503 11.64849
vt 0.5000002 0.7497502 0.5
vt 0.9995003 0.7497501 12.11252
vt 0.1763842 0.9264358 11.64849
vt 0.5000003 0.9995004 0.5
vt 0.797433 0.9264358 12.11252
vt 0.000499517 0.000499606 11.64849
vt 0.4999997 0.000499576 0.5
vt 0.9994998 0.000499547 12.11252
vt 0.000499696 0.2502498 11.64849
vt 0.4999999 0.2502498 0.5
vt 0.9995 0.2502497 12.11252
vt 0.000499845 0.5000001 11.64849
vt 0.5 0.5 0.5
vt 0.9995002 0.4999999 12.11252
vt 0.000499994 0.7497503 11.64849
vt 0.5000002 0.7497502 0.5
vt 0.9995003 0.7497501 12.11252
vt 0.1763842 0.9264358 11.64849
vt 0.5000003 0.9995004 0.5
vt 0.797433 0.9264358 12.11252
vt 0.000499517 0.000499606 11.64849
vt 0.4999997 0.000499576 0.5
vt 0.9994998 0.000499547 12.11252
vt 0.000499696 0.2502498 11.64849
vt 0.4999999 0.2502498 0.5
vt 0.9995 0.2502497 12.11252
vt 0.000499845 0.5000001 11.64849
vt 0.5 0.5 0.5
vt 0.9995002 0.4999999 12.11252
vt 0.000499994 0.7497503 11.64849
vt 0.5000002 0.7497502 0.5
vt 0.9995003 0.7497501 12.11252
vt 0.1763842 0.9264358 11.64849
vt 0.5000003 0.9995004 0.5
vt 0.797433 0.9264358 12.11252
vt 0.000499517 0.000499606 11.64849
vt 0.4999997 0.000499576 0.5
vt 0.9994998 0.000499547 12.11252
vt 0.000499696 0.2502498 11.64849
vt 0.4999999 0.2502498 0.5
vt 0.9995 0.2502497 12.11252
vt 0.000499845 0.5000001 11.64849
vt 0.5 0.5 0.5
vt 0.9995002 0.4999999 12.11252
vt 0.000499994 0.7497503 11.64849
vt 0.5000002 0.7497502 0.5
vt 0.9995003 0.7497501 12.11252
vt 0.1763842 0.9264358 11.64849
vt 0.5000003 0.9995004 0.5
vt 0.797433 0.9264358 12.11252
vt 0.000499517 0.000499606 11.64849
vt 0.4999997 0.000499576 0.5
vt 0.9994998 0.000499547 12.11252
vt 0.000499696 0.2502498 11.64849
vt 0.4999999 0.2502498 0.5
vt 0.9995 0.2502497 12.11252
vt 0.000499845 0.5000001 11.64849
vt 0.5 0.5 0.5
vt 0.9995002 0.4999999 12.11252
vt 0.000499994 0.7497503 11.64849
vt 0.5000002 0.7497502 0.5
vt 0.9995003 0.7497501 12.11252
vt 0.1763842 0.9264358 11.64849
vt 0.5000003 0.9995004 0.5
vt 0.797433 0.9264358 12.11252
vt 0.000499517 0.000499606 11.64849
vt 0.4999997 0.000499576 0.5
vt 0.9994998 0.000499547 12.11252
vt 0.000499696 0.2502498 11.64849
vt 0.4999999 0.2502498 0.5
vt 0.9995 0.2502497 12.11252
vt 0.000499845 0.5000001 11.64849
vt 0.5 0.5 0.5
vt 0.9995002 0.4999999 12.11252
vt 0.000499994 0.7497503 11.64849
vt 0.5000002 0.7497502 0.5
vt 0.9995003 0.7497501 12.11252
vt 0.1763842 0.9264358 11.64849
vt 0.5000003 0.9995004 0.5
vt 0.797433 0.9264358 12.11252
vt 0.000499517 0.000499606 11.64849
vt 0.4999997 0.000499576 0.5
vt 0.9994998 0.000499547 12.11252
vt 0.000499696 0.2502498 11.64849
vt 0.4999999 0.2502498 0.5
vt 0.9995 0.2502497 12.11252
vt 0.000499845 0.5000001 11.64849
vt 0.5 0.5 0.5
vt 0.9995002 0.4999999 12.11252
vt 0.000499994 0.7497503 11.64849
vt 0.5000002 0.7497502 0.5
vt 0.9995003 0.7497501 12.11252
vt 0.1763842 0.9264358 11.64849
vt 0.5000003 0.9995004 0.5
vt 0.797433 0.9264358 12.11252
vt 0.000499517 0.000499606 11.64849
vt 0.4999997 0.000499576 0.5
vt 0.9994998 0.000499547 12.11252
vt 0.000499696 0.2502498 11.64849
vt 0.4999999 0.2502498 0.5
vt 0.9995 0.2502497 12.11252
vt 0.000499845 0.5000001 11.64849
vt 0.5 0.5 0.5
vt 0.9995002 0.4999999 12.11252
vt 0.000499994 0.7497503 11.64849
vt 0.5000002 0.7497502 0.5
vt 0.9995003 0.7497501 12.11252
vt 0.1763842 0.9264358 11.64849
vt 0.5000003 0.9995004 0.5
vt 0.797433 0.9264358 12.11252
vt 0.000499517 0.000499606 11.64849
vt 0.4999997 0.000499576 0.5
vt 0.9994998 0.000499547 12.11252
vt 0.000499696 0.2502498 11.64849
vt 0.4999999 0.2502498 0.5
vt 0.9995 0.2502497 12.11252
vt 0.000499845 0.5000001 11.64849
vt 0.5 0.5 0.5
vt 0.9995002 0.4999999 12.11252
vt 0.000499994 0.7497503 11.64849
vt 0.5000002 0.7497502 0.5
vt 0.9995003 0.7497501 12.11252
vt 0.1763842 0.9264358 11.64849
vt 0.5000003 0.9995004 0.5
vt 0.797433 0.9264358 12.11252
vt 0.000499517 0.000499606 11.64849
vt 0.4999997 0.000499576 0.5
vt 0.9994998 0.000499547 12.11252
vt 0.000499696 0.2502498 11.64849
vt 0.4999999 0.2502498 0.5
vt 0.9995 0.2502497 12.11252
vt 0.000499845 0.5000001 11.64849
vt 0.5 0.5 0.5
vt 0.9995002 0.4999999 12.11252
vt 0.000499994 0.7497503 11.64849
vt 0.5000002 0.7497502 0.5
vt 0.9995003 0.7497501 12.11252
vt 0.1763842 0.9264358 11.64849
vt 0.5000003 0.9995004 0.5
vt 0.797433 0.9264358 12.11252
vt 0.000499517 0.000499606 11.64849
vt 0.4999997 0.000499576 0.5
vt 0.9994998 0.000499547 12.11252
vt 0.000499696 0.2502498 11.64849
vt 0.4999999 0.2502498 0.5
vt 0.9995 0.2502497 12.11252
vt 0.000499845 0.5000001 11.64849
vt 0.5 0.5 0.5
vt 0.9995002 0.4999999 12.11252
vt 0.000499994 0.7497503 11.64849
vt 0.5000002 0.7497502 0.5
vt 0.9995003 0.7497501 12.11252
vt 0.1763842 0.9264358 11.64849
vt 0.5000003 0.9995004 0.5
vt 0.797433 0.9264358 12.11252
vt 0.000499517 0.000499606 11.64849
vt 0.4999997 0.000499576 0.5
vt 0.9994998 0.000499547 12.11252
vt 0.000499696 0.2502498 11.64849
vt 0.4999999 0.2502498 0.5
vt 0.9995 0.2502497 12.11252
vt 0.000499845 0.5000001 11.64849
vt 0.5 0.5 0.5
vt 0.9995002 0.4999999 12.11252
vt 0.000499994 0.7497503 11.64849
vt 0.5000002 0.7497502 0.5
vt 0.9995003 0.7497501 12.11252
vt 0.1763842 0.9264358 11.64849
vt 0.5000003 0.9995004 0.5
vt 0.797433 0.9264358 12.11252
# 376 texture coords

usemtl SquatPalm
s 1
f 9/9/1 10/10/2 2/2/3
f 2/2/3 1/1/4 9/9/1
f 10/10/2 11/11/5 3/3/6
f 3/3/6 2/2/3 10/10/2
f 11/73/5 12/12/7 4/4/8
f 4/4/8 3/74/6 11/73/5
f 12/12/7 13/13/9 5/5/10
f 5/5/10 4/4/8 12/12/7
f 13/75/9 14/14/11 6/6/12
f 6/6/12 5/76/10 13/75/9
f 14/14/11 15/15/13 7/7/14
f 7/7/14 6/6/12 14/14/11
f 15/77/13 16/16/15 8/8/16
f 8/8/16 7/78/14 15/77/13
f 16/16/15 9/79/1 1/80/4
f 1/80/4 8/8/16 16/16/15
f 17/17/17 18/18/18 10/10/2
f 10/10/2 9/9/1 17/17/17
f 18/18/18 19/19/19 11/11/5
f 11/11/5 10/10/2 18/18/18
f 19/81/19 20/20/20 12/12/7
f 12/12/7 11/82/5 19/81/19
f 20/20/20 21/21/21 13/13/9
f 13/13/9 12/12/7 20/20/20
f 21/83/21 22/22/22 14/14/11
f 14/14/11 13/84/9 21/83/21
f 22/22/22 23/23/23 15/15/13
f 15/15/13 14/14/11 22/22/22
f 23/85/23 24/24/24 16/16/15
f 16/16/15 15/86/13 23/85/23
f 24/24/24 17/87/17 9/88/1
f 9/88/1 16/16/15 24/24/24
f 25/25/25 26/26/26 18/18/18
f 18/18/18 17/17/17 25/25/25
f 26/26/26 27/27/27 19/19/19
f 19/19/19 18/18/18 26/26/26
f 27/89/27 28/28/28 20/20/20
f 20/20/20 19/90/19 27/89/27
f 28/28/28 29/29/29 21/21/21
f 21/21/21 20/20/20 28/28/28
f 29/91/29 30/30/30 22/22/22
f 22/22/22 21/92/21 29/91/29
f 30/30/30 31/31/31 23/23/23
f 23/23/23 22/22/22 30/30/30
f 31/93/31 32/32/32 24/24/24
f 24/24/24 23/94/23 31/93/31
f 32/32/32 25/95/25 17/96/17
f 17/96/17 24/24/24 32/32/32
f 33/33/33 34/34/34 26/26/26
f 26/26/26 25/25/25 33/33/33
f 34/34/34 35/35/35 27/27/27
f 27/27/27 26/26/26 34/34/34
f 35/97/35 36/36/36 28/28/28
f 28/28/28 27/98/27 35/97/35
f 36/36/36 37/37/37 29/29/29
f 29/29/29 28/28/28 36/36/36
f 37/99/37 38/38/38 30/30/30
f 30/30/30 29/100/29 37/99/37
f 38/38/38 39/39/39 31/31/31
f 31/31/31 30/30/30 38/38/38
f 39/101/39 40/40/40 32/32/32
f 32/32/32 31/102/31 39/101/39
f 40/40/40 33/103/33 25/104/25
f 25/104/25 32/32/32 40/40/40
f 41/41/41 42/42/42 34/34/34
f 34/34/34 33/33/33 41/41/41
f 42/42/42 43/43/43 35/35/35
f 35/35/35 34/34/34 42/42/42
f 43/105/43 44/44/44 36/36/36
f 36/36/36 35/106/35 43/105/43
f 44/44/44 45/45/45 37/37/37
f 37/37/37 36/36/36 44/44/44
f 45/107/45 46/46/46 38/38/38
f 38/38/38 37/108/37 45/107/45
f 46/46/46 47/47/47 39/39/39
f 39/39/39 38/38/38 46/46/46
f 47/109/47 48/48/48 40/40/40
f 40/40/40 39/110/39 47/109/47
f 48/48/48 41/111/41 33/112/33
f 33/112/33 40/40/40 48/48/48
f 49/49/49 50/50/50 42/42/42
f 42/42/42 41/41/41 49/49/49
f 50/50/50 51/51/51 43/43/43
f 43/43/43 42/42/42 50/50/50
f 51/113/51 52/52/52 44/44/44
f 44/44/44 43/114/43 51/113/51
f 52/52/52 53/53/53 45/45/45
f 45/45/45 44/44/44 52/52/52
f 53/115/53 54/54/54 46/46/46
f 46/46/46 45/116/45 53/115/53
f 54/54/54 55/55/55 47/47/47
f 47/47/47 46/46/46 54/54/54
f 55/117/55 56/56/56 48/48/48
f 48/48/48 47/118/47 55/117/55
f 56/56/56 49/119/49 41/120/41
f 41/120/41 48/48/48 56/56/56
f 57/57/57 58/58/58 50/50/50
f 50/50/50 49/49/49 57/57/57
f 58/58/58 59/59/59 51/51/51
f 51/51/51 50/50/50 58/58/58
f 59/121/59 60/60/60 52/52/52
f 52/52/52 51/122/51 59/121/59
f 60/60/60 61/61/61 53/53/53
f 53/53/53 52/52/52 60/60/60
f 61/123/61 62/62/62 54/54/54
f 54/54/54 53/124/53 61/123/61
f 62/62/62 63/63/63 55/55/55
f 55/55/55 54/54/54 62/62/62
f 63/125/63 64/64/64 56/56/56
f 56/56/56 55/126/55 63/125/63
f 64/64/64 57/127/57 49/128/49
f 49/128/49 56/56/56 64/64/64
f 65/65/65 66/66/66 58/58/58
f 58/58/58 57/57/57 65/65/65
f 66/66/66 67/67/67 59/59/59
f 59/59/59 58/58/58 66/66/66
f 67/129/67 68/68/68 60/60/60
f 60/60/60 59/130/59 67/129/67
f 68/68/68 69/69/69 61/61/61
f 61/61/61 60/60/60 68/68/68
f 69/131/69 70/70/70 62/62/62
f 62/62/62 61/132/61 69/131/69
f 70/70/70 71/71/71 63/63/63
f 63/63/63 62/62/62 70/70/70
f 71/133/71 72/72/72 64/64/64
f 64/64/64 63/134/63 71/133/71
f 72/72/72 65/135/65 57/136/57
f 57/136/57 64/64/64 72/72/72
#384 polygons

usemtl KingsPalm01
s 2
f 73/137/73 74/138/74 77/141/75
f 77/141/75 76/140/76 73/137/73
f 74/138/74 75/139/77 78/142/78
f 78/142/78 77/141/75 74/138/74
f 76/140/76 77/141/75 80/144/79
f 80/144/79 79/143/80 76/140/76
f 77/141/75 78/142/78 81/145/81
f 81/145/81 80/144/79 77/141/75
f 79/143/80 80/144/79 83/147/82
f 83/147/82 82/146/83 79/143/80
f 80/144/79 81/145/81 84/148/84
f 84/148/84 83/147/82 80/144/79
f 82/146/83 83/147/82 86/150/85
f 86/150/85 85/149/86 82/146/83
f 83/147/82 84/148/84 87/151/87
f 87/151/87 86/150/85 83/147/82
f 88/152/88 89/153/89 92/156/90
f 92/156/90 91/155/91 88/152/88
f 89/153/89 90/154/92 93/157/93
f 93/157/93 92/156/90 89/153/89
f 91/155/91 92/156/90 95/159/94
f 95/159/94 94/158/95 91/155/91
f 92/156/90 93/157/93 96/160/96
f 96/160/96 95/159/94 92/156/90
f 94/158/95 95/159/94 98/162/97
f 98/162/97 97/161/98 94/158/95
f 95/159/94 96/160/96 99/163/99
f 99/163/99 98/162/97 95/159/94
f 97/161/98 98/162/97 101/165/100
f 101/165/100 100/164/101 97/161/98
f 98/162/97 99/163/99 102/166/102
f 102/166/102 101/165/100 98/162/97
f 103/167/103 104/168/104 107/171/105
f 107/171/105 106/170/106 103/167/103
f 104/168/104 105/169/107 108/172/108
f 108/172/108 107/171/105 104/168/104
f 106/170/106 107/171/105 110/174/109
f 110/174/109 109/173/110 106/170/106
f 107/171/105 108/172/108 111/175/111
f 111/175/111 110/174/109 107/171/105
f 109/173/110 110/174/109 113/177/112
f 113/177/112 112/176/113 109/173/110
f 110/174/109 111/175/111 114/178/114
f 114/178/114 113/177/112 110/174/109
f 112/176/113 113/177/112 116/180/115
f 116/180/115 115/179/116 112/176/113
f 113/177/112 114/178/114 117/181/117
f 117/181/117 116/180/115 113/177/112
f 118/182/118 119/183/119 122/186/120
f 122/186/120 121/185/121 118/182/118
f 119/183/119 120/184/122 123/187/123
f 123/187/123 122/186/120 119/183/119
f 121/185/121 122/186/120 125/189/124
f 125/189/124 124/188/125 121/185/121
f 122/186/120 123/187/123 126/190/126
f 126/190/126 125/189/124 122/186/120
f 124/188/125 125/189/124 128/192/127
f 128/192/127 127/191/128 124/188/125
f 125/189/124 126/190/126 129/193/129
f 129/193/129 128/192/127 125/189/124
f 127/191/128 128/192/127 131/195/130
f 131/195/130 130/194/131 127/191/128
f 128/192/127 129/193/129 132/196/132
f 132/196/132 131/195/130 128/192/127
f 133/197/133 134/198/134 137/201/135
f 137/201/135 136/200/136 133/197/133
f 134/198/134 135/199/137 138/202/138
f 138/202/138 137/201/135 134/198/134
f 136/200/136 137/201/135 140/204/139
f 140/204/139 139/203/140 136/200/136
f 137/201/135 138/202/138 141/205/141
f 141/205/141 140/204/139 137/201/135
f 139/203/140 140/204/139 143/207/142
f 143/207/142 142/206/143 139/203/140
f 140/204/139 141/205/141 144/208/144
f 144/208/144 143/207/142 140/204/139
f 142/206/143 143/207/142 146/210/145
f 146/210/145 145/209/146 142/206/143
f 143/207/142 144/208/144 147/211/147
f 147/211/147 146/210/145 143/207/142
f 148/212/148 149/213/149 152/216/150
f 152/216/150 151/215/151 148/212/148
f 149/213/149 150/214/152 153/217/153
f 153/217/153 152/216/150 149/213/149
f 151/215/151 152/216/150 155/219/154
f 155/219/154 154/218/155 151/215/151
f 152/216/150 153/217/153 156/220/156
f 156/220/156 155/219/154 152/216/150
f 154/218/155 155/219/154 158/222/157
f 158/222/157 157/221/158 154/218/155
f 155/219/154 156/220/156 159/223/159
f 159/223/159 158/222/157 155/219/154
f 157/221/158 158/222/157 161/225/160
f 161/225/160 160/224/161 157/221/158
f 158/222/157 159/223/159 162/226/162
f 162/226/162 161/225/160 158/222/157
f 163/227/163 164/228/164 167/231/165
f 167/231/165 166/230/166 163/227/163
f 164/228/164 165/229/167 168/232/168
f 168/232/168 167/231/165 164/228/164
f 166/230/166 167/231/165 170/234/169
f 170/234/169 169/233/170 166/230/166
f 167/231/165 168/232/168 171/235/171
f 171/235/171 170/234/169 167/231/165
f 169/233/170 170/234/169 173/237/172
f 173/237/172 172/236/173 169/233/170
f 170/234/169 171/235/171 174/238/174
f 174/238/174 173/237/172 170/234/169
f 172/236/173 173/237/172 176/240/175
f 176/240/175 175/239/176 172/236/173
f 173/237/172 174/238/174 177/241/177
f 177/241/177 176/240/175 173/237/172
f 178/242/178 179/243/179 182/246/180
f 182/246/180 181/245/181 178/242/178
f 179/243/179 180/244/182 183/247/183
f 183/247/183 182/246/180 179/243/179
f 181/245/181 182/246/180 185/249/184
f 185/249/184 184/248/185 181/245/181
f 182/246/180 183/247/183 186/250/186
f 186/250/186 185/249/184 182/246/180
f 184/248/185 185/249/184 188/252/187
f 188/252/187 187/251/188 184/248/185
f 185/249/184 186/250/186 189/253/189
f 189/253/189 188/252/187 185/249/184
f 187/251/188 188/252/187 191/255/190
f 191/255/190 190/254/191 187/251/188
f 188/252/187 189/253/189 192/256/192
f 192/256/192 191/255/190 188/252/187
f 193/257/193 194/258/194 197/261/195
f 197/261/195 196/260/196 193/257/193
f 194/258/194 195/259/197 198/262/198
f 198/262/198 197/261/195 194/258/194
f 196/260/196 197/261/195 200/264/199
f 200/264/199 199/263/200 196/260/196
f 197/261/195 198/262/198 201/265/201
f 201/265/201 200/264/199 197/261/195
f 199/263/200 200/264/199 203/267/202
f 203/267/202 202/266/203 199/263/200
f 200/264/199 201/265/201 204/268/204
f 204/268/204 203/267/202 200/264/199
f 202/266/203 203/267/202 206/270/205
f 206/270/205 205/269/206 202/266/203
f 203/267/202 204/268/204 207/271/207
f 207/271/207 206/270/205 203/267/202
f 208/272/208 209/273/209 212/276/210
f 212/276/210 211/275/211 208/272/208
f 209/273/209 210/274/212 213/277/213
f 213/277/213 212/276/210 209/273/209
f 211/275/211 212/276/210 215/279/214
f 215/279/214 214/278/215 211/275/211
f 212/276/210 213/277/213 216/280/216
f 216/280/216 215/279/214 212/276/210
f 214/278/215 215/279/214 218/282/217
f 218/282/217 217/281/218 214/278/215
f 215/279/214 216/280/216 219/283/219
f 219/283/219 218/282/217 215/279/214
f 217/281/218 218/282/217 221/285/220
f 221/285/220 220/284/221 217/281/218
f 218/282/217 219/283/219 222/286/222
f 222/286/222 221/285/220 218/282/217
f 223/287/223 224/288/224 227/291/225
f 227/291/225 226/290/226 223/287/223
f 224/288/224 225/289/227 228/292/228
f 228/292/228 227/291/225 224/288/224
f 226/290/226 227/291/225 230/294/229
f 230/294/229 229/293/230 226/290/226
f 227/291/225 228/292/228 231/295/231
f 231/295/231 230/294/229 227/291/225
f 229/293/230 230/294/229 233/297/232
f 233/297/232 232/296/233 229/293/230
f 230/294/229 231/295/231 234/298/234
f 234/298/234 233/297/232 230/294/229
f 232/296/233 233/297/232 236/300/235
f 236/300/235 235/299/236 232/296/233
f 233/297/232 234/298/234 237/301/237
f 237/301/237 236/300/235 233/297/232
f 238/302/238 239/303/239 242/306/240
f 242/306/240 241/305/241 238/302/238
f 239/303/239 240/304/242 243/307/243
f 243/307/243 242/306/240 239/303/239
f 241/305/241 242/306/240 245/309/244
f 245/309/244 244/308/245 241/305/241
f 242/306/240 243/307/243 246/310/246
f 246/310/246 245/309/244 242/306/240
f 244/308/245 245/309/244 248/312/247
f 248/312/247 247/311/248 244/308/245
f 245/309/244 246/310/246 249/313/249
f 249/313/249 248/312/247 245/309/244
f 247/311/248 248/312/247 251/315/250
f 251/315/250 250/314/251 247/311/248
f 248/312/247 249/313/249 252/316/252
f 252/316/252 251/315/250 248/312/247
f 253/317/253 254/318/254 257/321/255
f 257/321/255 256/320/256 253/317/253
f 254/318/254 255/319/257 258/322/258
f 258/322/258 257/321/255 254/318/254
f 256/320/256 257/321/255 260/324/259
f 260/324/259 259/323/260 256/320/256
f 257/321/255 258/322/258 261/325/261
f 261/325/261 260/324/259 257/321/255
f 259/323/260 260/324/259 263/327/262
f 263/327/262 262/326/263 259/323/260
f 260/324/259 261/325/261 264/328/264
f 264/328/264 263/327/262 260/324/259
f 262/326/263 263/327/262 266/330/265
f 266/330/265 265/329/266 262/326/263
f 263/327/262 264/328/264 267/331/267
f 267/331/267 266/330/265 263/327/262
f 268/332/268 269/333/269 272/336/270
f 272/336/270 271/335/271 268/332/268
f 269/333/269 270/334/272 273/337/273
f 273/337/273 272/336/270 269/333/269
f 271/335/271 272/336/270 275/339/274
f 275/339/274 274/338/275 271/335/271
f 272/336/270 273/337/273 276/340/276
f 276/340/276 275/339/274 272/336/270
f 274/338/275 275/339/274 278/342/277
f 278/342/277 277/341/278 274/338/275
f 275/339/274 276/340/276 279/343/279
f 279/343/279 278/342/277 275/339/274
f 277/341/278 278/342/277 281/345/280
f 281/345/280 280/344/281 277/341/278
f 278/342/277 279/343/279 282/346/282
f 282/346/282 281/345/280 278/342/277
f 283/347/283 284/348/284 287/351/285
f 287/351/285 286/350/286 283/347/283
f 284/348/284 285/349/287 288/352/288
f 288/352/288 287/351/285 284/348/284
f 286/350/286 287/351/285 290/354/289
f 290/354/289 289/353/290 286/350/286
f 287/351/285 288/352/288 291/355/291
f 291/355/291 290/354/289 287/351/285
f 289/353/290 290/354/289 293/357/292
f 293/357/292 292/356/293 289/353/290
f 290/354/289 291/355/291 294/358/294
f 294/358/294 293/357/292 290/354/289
f 292/356/293 293/357/292 296/360/295
f 296/360/295 295/359/296 292/356/293
f 293/357/292 294/358/294 297/361/297
f 297/361/297 296/360/295 293/357/292
f 298/362/298 299/363/299 302/366/300
f 302/366/300 301/365/301 298/362/298
f 299/363/299 300/364/302 303/367/303
f 303/367/303 302/366/300 299/363/299
f 301/365/301 302/366/300 305/369/304
f 305/369/304 304/368/305 301/365/301
f 302/366/300 303/367/303 306/370/306
f 306/370/306 305/369/304 302/366/300
f 304/368/305 305/369/304 308/372/307
f 308/372/307 307/371/308 304/368/305
f 305/369/304 306/370/306 309/373/309
f 309/373/309 308/372/307 305/369/304
f 307/371/308 308/372/307 311/375/310
f 311/375/310 310/374/311 307/371/308
f 308/372/307 309/373/309 312/376/312
f 312/376/312 311/375/310 308/372/307
#384 polygons

g BeachPalm128

#
# object BeachPalm128
#

v -16.21289 -119.742485 100.9285
v -19.75377 27.27846 25.77141
v 32.884068 4.2814617 16.39216
v 42.178467 -91.27503 148.6622
v -27.42888 4.3966026 67.0912
v 19.603008 17.76764 67.3358
v 96.48108 41.057568 123.0869
v -6.4570894 -25.319881 47.9214
v -17.440622 22.326218 47.6884
v -14.962161 106.74942 123.0869
v 25.322498 -8.919816 47.92139
v -23.570211 -8.380556 47.68839
v 51.099117 37.614918 176.5764
v -9.207468 -28.76254 64.28565
v -19.00995 18.883549 59.32545
v 16.301208 -100.91178 92.90497
v -25.023232 0.9156801 38.04092
v 34.740017 -27.61856 97.91759
v 46.95831 -78.79847 29.92422
v -8.361281 -19.68049 46.87825
v 42.34293 -21.128922 56.54143
v -72.84069 63.72051 29.92425
v -1.2124094 25.97688 46.87827
v -49.595352 10.741889 56.54143
v -113.69848 -30.71902 33.09871
v -3.5097644 28.460459 21.38438
v 15.530349 -16.16192 21.18247
v -2.0725684 -29.503561 67.34431
v -85.58528 70.53855 88.58461
v -53.758842 4.204962 122.6732
v 5.1953554 24.32812 106.1003
v -67.11535 -58.347942 81.64594
v -12.154661 21.71889 36.32848
v 18.09348 -3.4851153 36.16482
v -46.833183 -71.15817 109.8337
v -79.21811 -57.831413 53.95818
v -4.2497244 -76.41197 148.7696
v 34.81414 -7.9833393 170.9111
v 79.34764 -4.5406976 125.0215
v 25.322498 79.36509 125.0215
v 68.189575 65.79183 29.92424
v 10.845348 -17.96379 20.41739
v -19.52259 7.0957417 20.25352
v 94.60736 -6.0398216 29.92422
v -5.8195605 -20.797781 20.41739
v -8.036948 18.5122 20.25352
v 12.597809 97.36994 29.92425
v 20.561178 -3.8226924 20.4174
v -18.808891 -3.3885553 20.25352
v -34.63903 -88.51307 29.92422
v -22.114742 12.216799 20.4174
v 16.36579 3.8836997 20.25352
v -18.8089 80.612915 46.8529
v -0.5065966 -78.40585 46.85286
v 33.224438 72.47155 46.85288
v 75.77394 24.167488 46.85287
v 64.54611 32.098 85.40715
v -5.5236654 -20.695282 17.54377
v -14.005732 17.712389 15.77598
v 10.615898 20.286758 20.25353
v -6.0556474 -18.00105 20.25352
v 20.286108 13.196069 35.93089
v 70.14459 8.317709 86.95835
v -101.586784 44.68956 88.48462
v 21.024609 -52.290783 86.03817
v 44.269928 -92.64972 91.14783
v -49.05687 -105.95588 107.3082
v -26.769041 18.231228 53.98947
v 24.761848 11.370588 67.10007
v 31.85628 34.26436 112.2391
v -23.57022 42.34127 112.2391
v 32.43614 -27.679861 134.4874
v -2.4781854 30.821709 138.847
v -19.999481 -10.628962 75.75273
v -48.044243 -73.68914 81.20763
v -85.99437 43.076538 29.68238
v 66.146805 -63.600002 29.68237
v 103.73122 11.539609 123.7379
v 13.051119 -99.97878 149.0387
v 57.354668 8.09697 180.299
v 15.432988 106.84842 123.7379
v 23.793928 -1.9150424 46.87826
v 20.561178 16.798368 46.87827
v -26.256641 -7.9840155 46.87826
v 14.754719 -19.409502 46.87826
v 15.996899 14.616078 20.4174
v -20.901562 -3.3107164 20.4174
v -9.193624 -36.97753 80.08393
v -53.151093 -19.869371 52.15947
v 21.684378 -11.811992 72.95093
v -41.52956 25.22918 106.6073
v 6.2966275 -5.6234584 0.3539892
v 0.5407695 -2.9114344 69.33511
v -5.8325872 6.0875006 -0.3539838
v -10.642161 -47.54632 76.39033
v 12.993709 -38.9748 86.64157
v -101.11068 -58.129093 32.8007
v -0.4180398 1.2249547 16.34808
v 28.596878 35.38694 45.39313
v 0.8761435 48.845287 45.39313
v -13.409672 -43.33174 45.3931
v 45.40366 2.3883936 45.39311
v 41.03463 33.674667 84.0085
v 14.282269 8.521388 131.1418
v 43.63593 11.964039 98.04321
v 0.8761416 48.54128 98.04321
v 11.095669 -41.25199 120.4172
v -39.608143 -11.977741 80.5154
v -4.8697443 4.7295327 35.9836
v 26.75413 -33.14949 45.3931
v -38.80229 27.2044 45.39313
v -0.0281758 -1.8577894 62.20975
v 0.9050493 1.6159786 42.09021
v 0.8761425 4.5752625 42.09021
v -0.0475797 -1.8266864 62.2119
v -7.5381184 -26.30722 53.52006
v -11.877392 96.973915 29.6824
v 92.56447 18.35319 29.68238
v -10.583081 -93.04117 29.68236
v 48.89258 80.85234 29.68238
v 1.3168316 1.0777208 16.32082
v -87.71557 25.83298 111.5111
v 24.162619 8.536751 62.84457
v -27.046741 -27.725191 69.71813
v -6.6802382 23.012829 46.49732
v 12.257858 -16.151392 46.49731
v 12.368539 19.8891 46.49731
v -18.808891 17.063328 46.49731
v -3.7569184 0.8609353 32.23271
v 3.1930287 4.874664 35.87895
v -39.53043 -119.470184 85.37177
v 45.61816 -65.34526 101.6664
v -15.627631 8.493149 93.2494
v -27.349482 45.356327 122.8839
v 68.62989 23.915588 164.8219
v 107.20412 27.358238 104.9068
v 29.4684 -103.54778 130.7457
v 0.8761358 113.94692 104.9068
v -61.58544 67.1622 111.6301
v -24.483332 -7.261545 42.24261
v -5.6286173 -5.8379364 3.01333E-06
v -76.15908 28.278059 46.85288
v 61.699688 -46.396763 46.85287
v 5.34502 -15.2602215 66.79355
v -21.479462 -16.651731 106.0264
v -99.04194 -13.553721 54.43121
v -62.842712 2.3663695 66.4682
v -87.92112 54.53898 69.48561
v -43.31584 -42.04193 65.89642
v -60.23217 -68.45725 67.62839
v 0.5116053 -78.254395 104.3027
v -10.453611 -40.22568 100.5238
v -31.681301 -29.61848 95.81716
v -5.9991655 0.8676187 16.33135
v 25.269958 1.7431107 73.34321
v -100.66708 -40.76644 16.90997
# 156 vertices

vn 0.7527043 0.2056115 0.6254281
vn 0.3514515 0.4437216 0.8243743
vn 0.4033882 0.6754199 0.6173217
vn 0.3875457 0.4929982 0.7789488
vn -0.5175774 0.5035484 0.691775
vn -0.2725216 0.7186119 0.6397882
vn -0.433941 0.4287414 0.7923863
vn -0.4938578 -0.4763301 0.7274711
vn -0.6987576 -0.221812 0.6801008
vn -0.5188314 -0.3208398 0.7923862
vn 0.3467113 -0.5920954 0.7274712
vn 0.0511174 -0.7313345 0.6801007
vn -0.7339485 0.4287417 0.5267829
vn -0.7598981 -0.4763298 0.4423403
vn -0.9241587 -0.221812 0.3110147
vn -0.0457667 0.3516803 0.9350007
vn 0.4343827 0.4589515 0.7750323
vn 0.6361816 0.1390594 0.7589042
vn -0.2100776 -0.1830352 0.9603986
vn -0.05396325 0.4298752 0.9012743
vn 0.1392661 -0.2619694 0.9549749
vn 0.1385585 0.2417351 0.9603987
vn 0.1917547 -0.3885036 0.9012742
vn -0.2173722 0.2019216 0.9549749
vn 0.2089592 -0.4631633 0.8612873
vn -0.03943892 -0.02992145 0.9987739
vn 0.5266144 0.2208901 0.8209049
vn 0.006576401 -0.008397227 0.999943
vn -0.2501571 -0.4961295 0.8314306
vn -0.6200492 -0.3788538 0.687029
vn 0.5197558 -0.3364397 0.7852783
vn 0.6373032 -0.01983442 0.7703578
vn 0.2811216 0.3255731 0.9027584
vn 0.4575374 0.5467583 0.7012237
vn 0.7823543 0.4115357 0.4675041
vn -0.06249759 -0.7073745 0.7040706
vn 0.2776787 0.721162 0.634681
vn -0.8941362 0.3275687 0.3053183
vn -0.6741516 0.3275683 0.6619808
vn -0.4770378 -0.5781146 0.6619807
vn -0.4050042 -0.1538718 0.9012742
vn 0.1713702 -0.06304469 0.9831874
vn -0.3280593 -0.543653 0.7725403
vn -0.3879348 0.1929022 0.9012743
vn 0.07005428 -0.168626 0.9831875
vn -0.6218858 -0.128216 0.7725405
vn -0.2185819 -0.3740679 0.9012742
vn 0.1729598 0.05854258 0.9831875
vn 0.08605728 -0.6291069 0.7725404
vn 0.2892619 0.3225402 0.9012743
vn -0.1811938 -0.02260951 0.9831875
vn 0.04205795 0.6335709 0.7725406
vn 0.04875675 0.2926529 0.9549749
vn -0.1065448 -0.2768958 0.9549748
vn 0.2217115 0.1971473 0.9549748
vn 0.2952716 -0.02894389 0.9549748
vn -0.7268876 -0.4738833 0.4970602
vn -0.8728077 -0.1730743 0.4563464
vn -0.7237796 0.1079966 0.6815277
vn -0.2723344 0.5185088 0.8105446
vn 0.4271099 -0.4007432 0.8105443
vn -0.1769733 0.7609687 0.624185
vn -0.2582896 -0.5148559 0.8174411
vn -0.6979637 -0.4604996 0.5484405
vn -0.4718014 0.2586994 0.8428985
vn -0.1547042 0.5855536 0.7957346
vn 0.2784459 0.1113405 0.9539765
vn -0.1918395 -0.02942614 0.9809851
vn -0.4610754 0.3172419 0.828714
vn 0.6547438 -0.2671113 0.7070801
vn 0.7257648 0.3089565 0.6146636
vn 0.170886 -0.7465496 0.6430098
vn 0.4815683 -0.5486296 0.6834454
vn -0.3271542 -0.6243564 0.7093302
vn 0.5298158 -0.4649151 0.7093301
vn -0.656642 0.3288424 0.678737
vn -0.6017447 -0.6243563 0.4980788
vn 0.3164828 0.8244975 0.4690869
vn -0.008386188 0.8677008 0.4970161
vn -0.5239318 0.424003 0.7387266
vn -0.1385233 0.6082924 0.7815317
vn -0.1661641 0.3986872 0.901908
vn 0.02644862 -0.4311177 0.9019079
vn 0.06877214 -0.7196562 0.6909164
vn -0.731637 -0.07184885 0.6778975
vn -0.2367962 -0.7196558 0.6527044
vn 0.7156254 -0.1025419 0.6909165
vn -0.50402 -0.606768 0.6146514
vn -0.01125566 -0.7887185 0.6146515
vn 0.169447 0.7703837 0.6146517
vn -0.7876868 -0.04186947 0.6146515
vn 0.652024 -0.4439238 0.6146514
vn -0.470708 0.6329591 0.6146517
vn -0.1939338 0.4530615 0.8701293
vn 0.2564272 0.6511259 0.714339
vn -0.5897938 0.4604605 0.6634151
vn -0.4747823 -0.2606799 0.8406116
vn -0.6890616 0.387937 0.6121266
vn 0.7530918 0.1502161 0.6405371
vn 0.09714599 0.7668763 0.6344001
vn 0.3464486 0.4339878 0.8316417
vn 0.904711 -0.4166097 -0.08907577
vn 0.0224276 -0.09962066 0.9947727
vn -0.7050735 -0.707074 0.05401432
vn -0.4556589 0.8824028 -0.1172189
vn 0.6717067 0.7303834 0.123896
vn 0.2170117 0.03465857 0.9755535
vn 0.7019135 -0.07222345 0.708591
vn 0.7867169 -0.2101639 0.5804374
vn -0.6472116 0.5586067 0.5187252
vn -0.5463591 -0.214671 0.8095728
vn -0.5281009 0.189308 0.8278115
vn -0.03272657 -0.8203562 0.5709157
vn -0.07242636 0.780158 0.6213758
vn 0.6411782 -0.1099041 0.7594812
vn 0.2897087 -0.7759205 0.5603716
vn 0.4127038 0.1274273 0.9019079
vn 0.5680218 0.3170795 0.7594813
vn 0.712695 -0.4219588 0.5603719
vn 0.2411797 0.3583216 0.9019079
vn -0.6201336 -0.196526 0.7594812
vn -0.6134167 0.5565098 0.560372
vn -0.3082363 -0.3025765 0.9019079
vn 0.3546017 -0.5453861 0.7594811
vn -0.3730201 -0.7394859 0.5603719
vn 0.3737459 -0.2165092 0.9019078
vn -0.354217 -0.254582 0.8998435
vn -0.5277991 0.005081769 0.849354
vn -0.5358153 0.6977019 0.4755144
vn -0.1085631 0.005081207 0.9940766
vn -0.2774673 0.6977018 0.6604726
vn -0.03049077 -0.1043176 0.9940765
vn -0.7434075 -0.105458 0.6604725
vn -0.02408058 0.1566013 0.9873683
vn 0.6670396 0.3442287 0.6607305
vn 0.7643828 0.1865595 0.6171827
vn -0.7712365 0.612881 0.1719628
vn -0.4620242 -0.2017708 0.8636099
vn -0.2806577 -0.6639872 0.6930745
vn 0.370479 0.3419397 0.8636103
vn 0.04775516 0.7192826 0.6930743
vn -0.6747482 0.5449352 0.4977555
vn -0.5525696 -0.6353099 0.5394888
vn 0.4874064 -0.6865762 0.5394889
vn -0.7315374 -0.6353101 0.2474554
vn -0.8752173 0.2964404 0.3822536
vn -0.4629719 0.07155885 0.8834797
vn 0.5512582 -0.4468598 0.7045783
vn -0.001677683 -0.04987397 0.9987541
vn 0.04333299 0.7812567 0.6227039
vn 0.6974511 -0.2168615 0.6830322
vn 0.4435621 0.7147904 0.540673
vn -0.3868241 0.7636829 0.5168708
vn 0.1846062 0.8119773 0.553727
vn 0.8266677 -0.1726551 0.5355473
vn -0.5807548 0.5576481 0.5930873
# 156 vertex normals

vt 0.9994998 0.000499547 12.11252
vt 0.1763842 0.9264358 11.64849
vt 0.000499517 0.000499606 11.64849
vt 0.9994998 0.000499547 12.11252
vt 0.1763842 0.9264358 11.64849
vt 0.000499517 0.000499606 11.64849
vt 0.9994998 0.000499547 12.11252
vt 0.1763842 0.9264358 11.64849
vt 0.000499517 0.000499606 11.64849
vt 0.9994998 0.000499547 12.11252
vt 0.1763842 0.9264358 11.64849
vt 0.000499517 0.000499606 11.64849
vt 0.9994998 0.000499547 12.11252
vt 0.1763842 0.9264358 11.64849
vt 0.000499517 0.000499606 11.64849
vt 0.000499845 0.5000001 11.64849
vt 0.9994998 0.000499547 12.11252
vt 0.797433 0.9264358 12.11252
vt 0.000499845 0.5000001 11.64849
vt 0.9995 0.2502497 12.11252
vt 0.797433 0.9264358 12.11252
vt 0.000499845 0.5000001 11.64849
vt 0.9995 0.2502497 12.11252
vt 0.797433 0.9264358 12.11252
vt 0.9994998 0.000499547 12.11252
vt 0.797433 0.9264358 12.11252
vt 0.000499517 0.000499606 11.64849
vt 0.000499845 0.5000001 11.64849
vt 0.9995 0.2502497 12.11252
vt 0.797433 0.9264358 12.11252
vt 0.000499517 0.000499606 11.64849
vt 0.9994998 0.000499547 12.11252
vt 0.797433 0.9264358 12.11252
vt 0.000499517 0.000499606 11.64849
vt 0.9995003 0.7497501 12.11252
vt 0.000499994 0.7497503 11.64849
vt 0.9995003 0.7497501 12.11252
vt 0.9995003 0.7497501 12.11252
vt 0.9995003 0.7497501 12.11252
vt 0.9995003 0.7497501 12.11252
vt 0.9994998 0.000499547 12.11252
vt 0.797433 0.9264358 12.11252
vt 0.000499517 0.000499606 11.64849
vt 0.9994998 0.000499547 12.11252
vt 0.797433 0.9264358 12.11252
vt 0.000499517 0.000499606 11.64849
vt 0.9994998 0.000499547 12.11252
vt 0.797433 0.9264358 12.11252
vt 0.000499517 0.000499606 11.64849
vt 0.9994998 0.000499547 12.11252
vt 0.797433 0.9264358 12.11252
vt 0.000499517 0.000499606 11.64849
vt 0.000499994 0.7497503 11.64849
vt 0.000499994 0.7497503 11.64849
vt 0.000499994 0.7497503 11.64849
vt 0.000499994 0.7497503 11.64849
vt 0.000499517 0.000499606 11.64849
vt 0.9994998 0.000499547 12.11252
vt 0.1763842 0.9264358 11.64849
vt 0.000499517 0.000499606 11.64849
vt 0.000499517 0.000499606 11.64849
vt 0.000499517 0.000499606 11.64849
vt 0.797433 0.9264358 12.11252
vt 0.1763842 0.9264358 11.64849
vt 0.000499845 0.5000001 11.64849
vt 0.1763842 0.9264358 11.64849
vt 0.797433 0.9264358 12.11252
vt 0.9995 0.2502497 12.11252
vt 0.9994998 0.000499547 12.11252
vt 0.000499845 0.5000001 11.64849
vt 0.000499845 0.5000001 11.64849
vt 0.000499845 0.5000001 11.64849
vt 0.000499845 0.5000001 11.64849
vt 0.9995 0.2502497 12.11252
vt 0.1763842 0.9264358 11.64849
vt 0.1763842 0.9264358 11.64849
vt 0.1763842 0.9264358 11.64849
vt 0.797433 0.9264358 12.11252
vt 0.797433 0.9264358 12.11252
vt 0.797433 0.9264358 12.11252
vt 0.797433 0.9264358 12.11252
vt 0.9995 0.2502497 12.11252
vt 0.9995 0.2502497 12.11252
vt 0.9995 0.2502497 12.11252
vt 0.9995 0.2502497 12.11252
vt 0.9994998 0.000499547 12.11252
vt 0.9994998 0.000499547 12.11252
vt 0.000499845 0.5000001 11.64849
vt 0.5 0.5 0.5
vt 0.9995002 0.4999999 12.11252
vt 0.5 0.5 0.5
vt 0.5308082 0.06604403 0.4702542
vt 0.5015684 0.9421042 0.4840313
vt 0.470228 0.06154841 0.4691646
vt 0.4702542 0.06604403 0.5308082
vt 0.5308353 0.06154841 0.529772
vt 0.490759 0.9428401 0.5014552
vt 0.5 0.5 0.5
vt 0.5 0.5 0.5
vt 0.1763842 0.9264358 11.64849
vt 0.4999997 0.000499576 0.5
vt 0.5 0.5 0.5
vt 0.5 0.5 0.5
vt 0.5 0.5 0.5
vt 0.5 0.5 0.5
vt 0.000499994 0.7497503 11.64849
vt 0.5 0.5 0.5
vt 0.5 0.5 0.5
vt 0.5 0.5 0.5
vt 0.5 0.5 0.5
vt 0.9995002 0.4999999 12.11252
vt 0.5235846 0.5172111 0.5150419
vt 0.5160805 0.9420134 0.4948343
vt 0.4771526 0.5185401 0.4740831
vt 0.4702542 0.05705279 0.4691918
vt 0.5235846 0.5172111 0.5150419
vt 0.5 0.5 0.5
vt 0.5 0.5 0.5
vt 0.4999997 0.000499576 0.5
vt 0.4999997 0.000499576 0.5
vt 0.4999997 0.000499576 0.5
vt 0.4999997 0.000499576 0.5
vt 0.000499696 0.2502498 11.64849
vt 0.1763842 0.9264358 11.64849
vt 0.1763842 0.9264358 11.64849
vt 0.1763842 0.9264358 11.64849
vt 0.1763842 0.9264358 11.64849
vt 0.4999997 0.000499576 0.5
vt 0.000499994 0.7497503 11.64849
vt 0.5 0.5 0.5
vt 0.5 0.5 0.5
vt 0.000499696 0.2502498 11.64849
vt 0.000499696 0.2502498 11.64849
vt 0.000499696 0.2502498 11.64849
vt 0.000499696 0.2502498 11.64849
vt 0.4999997 0.000499576 0.5
vt 0.5259169 0.5185401 0.5228474
vt 0.4849581 0.5172111 0.5235846
vt 0.5308082 0.05705279 0.5297459
vt 0.4985448 0.9428401 0.490759
vt 0.5000003 0.9995004 0.5
vt 0.000499994 0.7497503 11.64849
vt 0.4999999 0.2502498 0.5
vt 0.9995002 0.4999999 12.11252
vt 0.5000003 0.9995004 0.5
vt 0.5000003 0.9995004 0.5
vt 0.5000003 0.9995004 0.5
vt 0.5000003 0.9995004 0.5
vt 0.9995003 0.7497501 12.11252
vt 0.4999999 0.2502498 0.5
vt 0.5308354 0.06154841 0.470228
vt 0.000499994 0.7497503 11.64849
vt 0.000499994 0.7497503 11.64849
vt 0.4999999 0.2502498 0.5
vt 0.000499696 0.2502498 11.64849
vt 0.9995003 0.7497501 12.11252
vt 0.9995002 0.4999999 12.11252
vt 0.5000003 0.9995004 0.5
vt 0.000499845 0.5000001 11.64849
vt 0.5000003 0.9995004 0.5
vt 0.9995003 0.7497501 12.11252
vt 0.9995002 0.4999999 12.11252
vt 0.9995002 0.4999999 12.11252
vt 0.4999997 0.000499576 0.5
vt 0.000499696 0.2502498 11.64849
vt 0.5000003 0.9995004 0.5
# 166 texture coords

usemtl KingsPalm01
s 4
f 465/539/313 407/474/314 410/477/315
f 349/413/316 419/486/317 424/495/318
f 351/415/319 417/484/320 425/496/321
f 352/416/322 418/485/323 426/497/324
f 350/414/325 416/483/326 427/498/327
f 408/475/328 464/538/329 463/537/330
f 422/493/331 332/396/332 331/397/333
f 423/494/334 335/399/335 334/400/336
f 459/533/337 401/465/338 452/526/339
f 403/467/340 446/520/341 451/525/342
f 446/520/341 403/467/340 445/519/343
f 420/487/344 436/507/345 441/512/346
f 410/477/315 314/377/347 465/539/313
f 401/465/338 459/533/337 458/532/348
f 424/495/318 317/380/349 349/413/316
f 427/498/327 326/389/350 350/414/325
f 425/496/321 320/383/351 351/415/319
f 426/497/324 323/386/352 352/416/322
f 394/458/353 411/478/354 355/419/355
f 397/461/356 414/481/357 358/422/358
f 395/459/359 412/479/360 361/425/361
f 396/460/362 413/480/363 364/428/364
f 412/479/360 395/459/359 359/424/365
f 413/480/363 396/460/362 362/427/366
f 411/478/354 394/458/353 353/418/367
f 414/481/357 397/461/356 356/421/368
f 371/433/369 433/504/370 435/506/371
f 332/396/332 422/493/331 372/436/372
f 335/399/335 423/494/334 373/437/373
f 464/538/329 408/475/328 456/530/374
f 435/506/371 415/482/375 371/433/369
f 341/406/376 460/534/377 403/467/340
f 377/441/378 410/477/315 407/474/314
f 328/394/379 378/442/380 408/475/328
f 407/474/314 313/378/381 377/441/378
f 380/444/382 452/526/339 466/540/383
f 343/405/384 445/519/343 381/445/385
f 382/446/386 425/496/321 417/484/320
f 383/447/387 426/497/324 418/485/323
f 384/448/388 424/495/318 419/486/317
f 385/449/389 427/498/327 416/483/326
f 386/450/390 456/530/374 329/393/391
f 436/507/345 387/451/392 400/464/393
f 334/400/336 388/452/394 423/494/334
f 331/397/333 389/453/395 422/493/331
f 417/484/320 319/384/396 382/446/386
f 419/486/317 316/381/397 384/448/388
f 416/483/326 325/390/398 385/449/389
f 418/485/323 322/387/399 383/447/387
f 394/458/353 355/419/355 354/417/400
f 395/459/359 361/425/361 360/423/401
f 396/460/362 364/428/364 363/426/402
f 397/461/356 358/422/358 357/420/403
f 335/399/335 373/437/373 398/462/404
f 332/396/332 372/436/372 399/463/405
f 400/464/393 441/512/346 436/507/345
f 401/465/338 461/535/406 428/499/407
f 348/412/408 401/465/338 468/542/409
f 402/466/410 435/506/371 433/504/370
f 457/531/411 445/519/343 403/467/340
f 403/467/340 434/505/412 342/404/413
f 313/378/381 407/474/314 443/517/419
f 407/474/314 347/411/420 379/443/421
f 467/541/422 456/530/374 408/475/328
f 408/475/328 444/518/423 330/392/424
f 337/402/425 468/542/409 401/465/338
f 410/477/315 377/441/378 315/379/426
f 411/478/354 367/431/427 437/508/428
f 367/431/427 411/478/354 432/503/429
f 412/479/360 365/429/430 440/511/431
f 365/429/430 412/479/360 429/500/432
f 413/480/363 366/430/433 438/509/434
f 366/430/433 413/480/363 431/502/435
f 414/481/357 368/432/436 439/510/437
f 368/432/436 414/481/357 430/501/438
f 415/482/375 435/506/371 369/435/439
f 325/390/398 416/483/326 447/521/440
f 416/483/326 350/414/325 392/456/441
f 319/384/396 417/484/320 448/522/442
f 417/484/320 351/415/319 390/454/443
f 322/387/399 418/485/323 450/524/444
f 418/485/323 352/416/322 393/457/445
f 316/381/397 419/486/317 449/523/446
f 419/486/317 349/413/316 391/455/447
f 441/512/346 345/408/448 420/487/344
f 333/395/450 372/436/372 422/493/331
f 422/493/331 455/529/451 333/395/450
f 336/398/452 373/437/373 423/494/334
f 423/494/334 454/528/453 336/398/452
f 424/495/318 384/448/388 318/382/454
f 425/496/321 382/446/386 321/385/455
f 426/497/324 383/447/387 324/388/456
f 427/498/327 385/449/389 327/391/457
f 428/499/407 452/526/339 401/465/338
f 359/424/365 429/500/432 412/479/360
f 356/421/368 430/501/438 414/481/357
f 362/427/366 431/502/435 413/480/363
f 353/418/367 432/503/429 411/478/354
f 433/504/370 370/434/458 402/466/410
f 434/505/412 403/467/340 460/534/377
f 435/506/371 402/466/410 375/439/459
f 375/439/459 369/435/439 435/506/371
f 436/507/345 420/487/344 344/409/460
f 344/409/460 462/536/461 436/507/345
f 437/508/428 355/419/355 411/478/354
f 438/509/434 364/428/364 413/480/363
f 439/510/437 358/422/358 414/481/357
f 440/511/431 361/425/361 412/479/360
f 441/512/346 400/464/393 346/410/462
f 379/443/421 443/517/419 407/474/314
f 444/518/423 408/475/328 378/442/380
f 445/519/343 457/531/411 340/407/463
f 340/407/463 381/445/385 445/519/343
f 445/519/343 343/405/384 446/520/341
f 392/456/441 447/521/440 416/483/326
f 390/454/443 448/522/442 417/484/320
f 391/455/447 449/523/446 419/486/317
f 393/457/445 450/524/444 418/485/323
f 403/467/340 451/525/342 341/406/376
f 452/526/339 428/499/407 339/403/464
f 339/403/464 466/540/383 452/526/339
f 454/528/453 423/494/334 388/452/394
f 455/529/451 422/493/331 389/453/395
f 456/530/374 467/541/422 374/438/465
f 374/438/465 329/393/391 456/530/374
f 403/467/340 342/404/413 457/531/411
f 401/465/338 458/532/348 337/402/425
f 452/526/339 380/444/382 459/533/337
f 460/534/377 376/440/466 434/505/412
f 401/465/338 348/412/408 461/535/406
f 387/451/392 436/507/345 462/536/461
f 408/475/328 463/537/330 328/394/379
f 456/530/374 386/450/390 464/538/329
f 407/474/314 465/539/313 347/411/420
f 466/540/383 338/401/467 380/444/382
f 408/475/328 330/392/424 467/541/422
f 468/542/409 409/476/468 348/412/408
#144 polygons

usemtl SquatPalm
s 8
f 404/468/414 405/469/415 453/470/416
f 404/471/414 406/472/417 442/492/418
f 442/488/418 405/473/415 404/471/414
f 405/489/415 421/490/449 453/527/416
f 421/513/449 442/514/418 406/515/417
f 442/514/418 421/513/449 405/516/415
f 453/527/416 421/490/449 406/491/417
#144 polygons

g Collision

#
# object Collision
#

v -7.16494 -8.551184 1.23167E-07
v 7.509279 -8.551184 1.23167E-07
v -7.164939 8.961617 -3.80756E-09
v 7.509279 8.961617 -3.80759E-09
v -1.957691 -3.517206 69.87942
v 1.40423 -3.517206 69.87942
v -1.957692 -1.0258021 69.87942
v 1.404229 -1.0258023 69.87942
# 8 vertices

vn -1.93685E-15 -7.25037E-09 -1
vn -1.93685E-15 -7.25037E-09 -0.9999999
vn -1.93685E-15 -7.25037E-09 -1
vn -1.93685E-15 -7.25037E-09 -1
vn 0 0 1
vn 0 0 0.9999999
vn 0 0 1
vn 0 0 0.9999999
vn 0 -0.9974154 0.07185188
vn 0 -0.9974154 0.07185189
vn 0 -0.9974152 0.07185187
vn 0 -0.9974153 0.07185187
vn 0.9962054 9.57857E-09 0.08703396
vn 0.9962053 6.31028E-10 0.08703396
vn 0.9962053 3.26125E-07 0.08703393
vn 0.9962054 3.81333E-07 0.08703393
vn 1.11244E-09 0.9899403 0.1414858
vn 2.74036E-16 0.9899402 0.1414858
vn 3.06844E-08 0.9899403 0.1414858
vn 3.5102E-08 0.9899403 0.1414858
vn -0.9972351 9.72441E-08 0.07431159
vn -0.9972351 1.09149E-07 0.07431159
vn -0.9972351 -3.07626E-07 0.07431152
vn -0.997235 -3.81727E-07 0.0743115
# 24 vertex normals

vt 1 0 0
vt 0 0 0
vt 1 1 0
vt 0 1 0
vt 0 0 0
vt 1 0 0
vt 0 1 0
vt 1 1 0
vt 0 0 0
vt 1 0 0
vt 0 1 0
vt 1 1 0
vt 0 0 0
vt 1 0 0
vt 0 1 0
vt 1 1 0
vt 0 0 0
vt 1 0 0
vt 0 1 0
vt 1 1 0
vt 0 0 0
vt 1 0 0
vt 0 1 0
vt 1 1 0
# 24 texture coords

usemtl ColorEffectR88G144B225-material
s 16
f 469/543/469 471/545/470 472/546/471
f 472/546/471 470/544/472 469/543/469
f 473/547/473 474/548/474 476/550/475
f 476/550/475 475/549/476 473/547/473
f 469/551/477 470/552/478 474/554/479
f 474/554/479 473/553/480 469/551/477
f 470/555/481 472/556/482 476/558/483
f 476/558/483 474/557/484 470/555/481
f 472/559/485 471/560/486 475/562/487
f 475/562/487 476/561/488 472/559/485
f 471/563/489 469/564/490 473/566/491
f 473/566/491 475/565/492 471/563/489
#12 polygons

